<svg width="32" height="32" viewBox="0 0 32 32" fill="none" xmlns="http://www.w3.org/2000/svg">
<rect x="0.75" y="0.75" width="30.5" height="30.5" rx="15.25" stroke="#01296E" stroke-width="1.5"/>
<g clip-path="url(#clip0_281_3118)">
<path d="M16.2494 8.69003C16.0932 8.53381 15.8812 8.44604 15.6603 8.44604C15.4393 8.44604 15.2274 8.53381 15.0711 8.69003L10.3569 13.4042C10.2774 13.4811 10.2139 13.573 10.1702 13.6747C10.1265 13.7764 10.1035 13.8857 10.1026 13.9964C10.1016 14.107 10.1227 14.2167 10.1646 14.3192C10.2065 14.4216 10.2684 14.5146 10.3466 14.5929C10.4249 14.6711 10.5179 14.733 10.6203 14.7749C10.7227 14.8168 10.8325 14.8379 10.9431 14.8369C11.0538 14.8359 11.1631 14.813 11.2648 14.7693C11.3665 14.7256 11.4584 14.6621 11.5353 14.5825L14.8269 11.2909V22.3267C14.8269 22.5477 14.9147 22.7597 15.071 22.916C15.2273 23.0722 15.4393 23.16 15.6603 23.16C15.8813 23.16 16.0933 23.0722 16.2495 22.916C16.4058 22.7597 16.4936 22.5477 16.4936 22.3267V11.2909L19.7853 14.5825C19.9424 14.7343 20.1529 14.8183 20.3714 14.8164C20.5899 14.8145 20.799 14.7269 20.9535 14.5724C21.108 14.4179 21.1956 14.2089 21.1975 13.9904C21.1994 13.7719 21.1154 13.5614 20.9636 13.4042L16.2494 8.69003Z" fill="#01296E"/>
</g>
<defs>
<clipPath id="clip0_281_3118">
<rect width="20" height="20" fill="white" transform="translate(5.66028 5.66016)"/>
</clipPath>
</defs>
</svg>
